<svg height="512pt" viewBox="0 -28 512 511" width="512pt" xmlns="http://www.w3.org/2000/svg"><path d="m482 139.90625v-75h-15c-46.8125 0-90.34375 14.246094-126.457031 38.605469-27.4375-55.714844-72.914063-93.46875-75.027344-95.199219l-9.515625-7.8125-9.515625 7.8125c-2.113281 1.730469-47.589844 39.484375-75.027344 95.199219-36.113281-24.359375-79.644531-38.605469-126.457031-38.605469h-15v75c0 15.1875 1.515625 30.253906 4.507812 45h-34.507812l3.589844 17.941406c8.082031 40.414063 24.875 76.050782 52.808594 103.546875-45.929688 19.308594-56.398438 41.925781-56.398438 58.511719 0 19.199219 14.113281 46.46875 81.34375 67.355469 46.992188 14.601562 109.019531 22.644531 174.65625 22.644531s127.664062-8.042969 174.65625-22.644531c67.230469-20.886719 81.34375-48.15625 81.34375-67.355469 0-16.585938-10.46875-39.203125-56.398438-58.511719 27.933594-27.496093 44.726563-63.132812 52.808594-103.546875l3.589844-17.941406h-34.507812c2.992187-14.746094 4.507812-29.8125 4.507812-45zm-30 0c0 15.238281-1.753906 30.324219-5.21875 45h-40.78125c-53.164062 0-100.527344 25.28125-130.726562 64.445312 17.804687-83.398437 89.34375-147.269531 176.726562-153.878906zm-195.988281-99.769531c14.679687 14.046875 42.925781 44.15625 60.277343 82.257812-26.460937 23.621094-47.304687 53.34375-60.289062 86.925781-12.984375-33.582031-33.828125-63.304687-60.285156-86.921874 17.316406-37.988282 45.613281-68.179688 60.296875-82.261719zm-196.011719 99.769531v-44.433594c87.511719 6.617188 159.132812 70.667969 176.800781 154.25-30.363281-39.375-78.144531-64.816406-131.800781-64.816406h-39.78125c-3.460938-14.675781-5.21875-29.761719-5.21875-45zm-25.671875 75h70.671875c69.882812 0 127.625 52.59375 135.164062 120h-41.195312c-75.8125 0-142.320312-49.476562-164.640625-120zm447.671875 150c0 9.949219-18.628906 25.777344-60.246094 38.707031-44.1875 13.730469-103.054687 21.292969-165.753906 21.292969s-121.566406-7.5625-165.753906-21.292969c-41.617188-12.929687-60.246094-28.757812-60.246094-38.707031 0-9.398438 16.441406-24.023438 52.9375-36.480469 33.152344 23.085938 73.332031 36.480469 116.03125 36.480469h114.058594c42.703125 0 82.882812-13.394531 116.035156-36.480469 36.496094 12.457031 52.9375 27.078125 52.9375 36.480469zm-168.972656-30h-41.199219c7.484375-67.40625 64.800781-120.011719 134.171875-120.011719h71.671875c-22.320313 70.527344-88.828125 120.011719-164.644531 120.011719zm0 0"/></svg>