<svg height="512pt" viewBox="0 0 512 512.0005" width="512pt" xmlns="http://www.w3.org/2000/svg"><path d="m.0195312 167.53125c.5624998 37.390625 20.9843748 70.210938 51.0429688 88.394531-30.066406 18.003907-50.488281 50.507813-51.0429688 87.539063-.0625 4.253906.0351563 8.558594.2929688 12.789062 2.796875 45.527344 44.214844 74.800782 85.390625 69.050782-5.863281 41.625 23.492187 83.585937 69.042969 86.382812 3.398437.207031 6.847656.3125 10.28125.3125.835937 0 1.671875-.007812 2.503906-.019531 37.316406-.5625 70.132812-21.316407 88.46875-51.898438 18.320312 30.558594 51.089844 51.335938 88.464844 51.898438 4.257812.066406 8.558594-.035157 12.789062-.292969 45.148438-2.773438 74.957032-44.390625 69.042969-86.378906 41.027344 5.71875 82.582031-23.363282 85.386719-69.050782.261718-4.222656.359375-8.523437.296875-12.789062-.558594-37.03125-20.980469-69.539062-51.042969-87.542969 30.058594-18.179687 50.480469-51.003906 51.042969-88.390625.0625-4.265625-.035157-8.566406-.296875-12.789062-2.796875-45.589844-44.300782-74.78125-85.378906-69.050782 5.742187-41.167968-23.519532-82.585937-69.050782-85.378906-4.230468-.2617185-8.527344-.363281-12.789062-.2968748-37.4375.5624998-70.300782 21.0390628-88.464844 51.1679688-18.167969-30.128906-51.027344-50.605469-88.464844-51.1679688-4.253906-.0664062-8.558594.0351563-12.792968.2929688-45.605469 2.800781-74.777344 44.324219-69.050782 85.378906-41.15625-5.734375-82.582031 23.503906-85.378906 69.054688-.2578125 4.226562-.3554688 8.527344-.2929688 12.785156zm167.0624998 314.453125c-3.496093.050781-7.027343-.03125-10.5-.242187-38.722656-2.378907-55.171875-50.941407-28.257812-77.851563l-21.214844-21.214844c-26.847656 26.847657-74.46875 10.546875-76.851563-28.257812-.210937-3.472657-.292968-7.007813-.242187-10.5.605469-40.207031 34.242187-72.917969 74.984375-72.917969h114.171875l-88.425781 88.042969 21.164062 21.257812 89.089844-88.699219v114.398438c0 40.585938-33.847656 75.378906-73.917969 75.984375zm314.902344-138.070313c.050781 3.503907-.027344 7.035157-.242187 10.5-2.382813 38.820313-50.007813 55.101563-76.851563 28.261719l-21.210937 21.214844c26.898437 26.898437 10.488281 75.46875-28.261719 77.851563-3.472657.210937-7.003907.292968-10.5.238281-40.066407-.601563-73.917969-35.398438-73.917969-75.980469v-114.398438l89.089844 88.699219 21.167968-21.261719-88.429687-88.039062h114.171875c40.742188 0 74.378906 32.710938 74.984375 72.914062zm-137.066406-313.898437c3.492187-.054687 7.03125.027344 10.5.242187 38.816406 2.382813 55.101562 50.007813 28.261719 76.851563l21.214843 21.210937c26.84375-26.847656 74.46875-10.542968 76.847657 28.261719.214843 3.464844.296874 7 .242187 10.5-.613281 40.757813-34.25 73.917969-74.984375 73.917969h-115.175781l89.433593-89.042969-21.167968-21.261719-89.089844 88.703126v-114.398438c0-40.734375 33.160156-74.371094 73.917969-74.984375zm-314.660157 126.566406c2.382813-38.816406 50.007813-55.101562 76.851563-28.261719l21.210937-21.214843c-26.828124-26.828125-10.574218-74.464844 28.261719-76.847657 3.472657-.214843 7.007813-.296874 10.5-.242187 40.757813.613281 73.917969 34.25 73.917969 74.984375v114.398438l-89.085938-88.703126-21.167968 21.261719 89.429687 89.042969h-115.175781c-40.734375 0-74.371094-33.160156-74.984375-73.917969-.050781-3.496093.03125-7.03125.242187-10.5zm0 0"/></svg>