<svg height="512pt" viewBox="0 0 512 512.00104" width="512pt" xmlns="http://www.w3.org/2000/svg"><path d="m451.511719 89.957031c-7.84375 0-19.097657.964844-26.257813 9.277344-4.035156 4.679687-5.378906 9.949219-5.585937 15.015625-9.023438-.605469-18.082031-.507812-27.074219.273438-4.664062-21.160157-15.644531-40.582032-30.984375-54.992188 9.710937-10.785156 10.503906-25.148438-6.429687-40.4375-24.957032-22.535156-57.746094-25.527344-74.644532-6.8125-18.921875 20.953125-7.472656 53.851562 14.363282 73.570312 7.332031 6.621094 15.851562 11.953126 25.703124 10.71875 10.371094-1.304687 16.167969-9.003906 20.371094-15.257812 10.605469 9.980469 18.449219 23.625 22.007813 38.332031-14.148438 3.695313-27.828125 9.121094-40.601563 16.210938-17.394531-17.117188-41.734375-34.527344-59.6875-44.125l-7.066406-3.777344-7.066406 3.777344c-.890625.476562-22.050782 11.863281-44.367188 30.335937-25.042968 20.734375-41.40625 41.808594-48.859375 62.859375-12.121093-2.621093-24.183593-4.015625-35.628906-4.015625-50.066406 0-95.007813 55.554688-116.347656 98.234375l-3.355469 6.707031 3.355469 6.703126c10.871093 21.746093 31.734375 51.566406 53.582031 70.855468-.71875 29.863282 3.917969 54.636719 4.132812 55.753906l1.480469 7.746094 7.214844 3.171875c31.695313 13.933594 80.636719 25.949219 117.191406 19.417969 17.609375 20.355469 42.28125 42.621094 59.648438 55.707031l9.023437 6.792969 9.019532-6.792969c16.917968-12.746093 41.609374-34.855469 59.648437-55.707031 36.628906 6.546875 85.859375-5.644531 117.191406-19.417969l7.21875-3.171875 1.476563-7.746094c.214844-1.125 4.921875-26.242187 4.117187-56.386718 7.203125-6.375 14.363281-13.824219 21.472657-22.355469 19.585937-23.5 31.566406-46.769531 32.066406-47.746094l3.488281-6.824219-3.488281-6.824218c-.5-.980469-12.480469-24.246094-32.066406-47.75-27.855469-33.421875-56.527344-50.367188-85.222657-50.367188-11.164062 0-22.898437 1.332032-34.695312 3.835938-3.035157-8.519532-7.527344-17.042969-13.46875-25.546875 23.960937-11.976563 51.308593-17.175781 78.160156-14.816407-1.132813 7.621094-2.511719 17.875 4.707031 26.253907 7.164063 8.3125 18.417969 9.273437 26.261719 9.273437 33.625 0 59.964844-19.753906 59.964844-44.972656s-26.339844-44.980469-59.96875-44.980469zm-126.472657-37.488281c-3.722656 4.121094-6.238281 8.078125-8.9375 12.097656-13.199218-11.199218-18.023437-26.980468-13.3125-32.191406 4.09375-4.535156 18.714844-3.296875 32.296876 8.96875.398437.359375.757812.695312 1.082031 1.003906-3.765625 3.121094-7.421875 6.019532-11.128907 10.121094zm-291.257812 233.4375c17.273438-30.375 51.164062-75.015625 85.921875-75.015625 26.039063 0 57.421875 9.257813 81.898437 24.160156 43.410157 26.425781 38.703126 51.898438 39.03125 52.769531l-10.855468-7.238281c-39.140625-26.09375-89.632813-29.210937-131.769532-8.144531l13.40625 26.820312c32.046876-16.023437 70.332032-13.925781 100.339844 5.378907-10.378906 2.15625-19.234375 5.246093-26.847656 9.355469-17.355469 9.359374-28.160156 23.71875-32.296875 42.800781-11.164063 2.570312-22.757813 4.011719-32.90625 4.011719-36.308594 0-71.382813-49.046876-85.921875-74.898438zm55.515625 119.703125c-.71875-5.351563-1.582031-13.074219-2.066406-22.082031 10.765625 4.828125 21.601562 7.261718 32.472656 7.261718 10.191406 0 21.203125-1.109374 32.171875-3.191406 2.0625 10.53125 6.804688 21.835938 14.1875 33.859375-29.695312.464844-62.394531-10.421875-76.765625-15.847656zm166.324219 68.453125c-24.535156-20.199219-74.953125-67.058594-74.953125-98.265625 0-26.996094 12.746093-44.976563 74.957031-44.976563s74.957031 17.980469 74.957031 44.976563c0 31.210937-50.113281 77.804687-74.960937 98.265625zm166.320312-68.390625c-17.410156 6.640625-48.9375 16.058594-76.71875 15.722656 7.347656-11.984375 12.078125-23.253906 14.140625-33.75 10.730469 2.066407 21.285157 3.144531 31.183594 3.144531 11.183594 0 22.363281-2.585937 33.496094-7.707031-.484375 9.238281-1.367188 17.152344-2.101563 22.589844zm55.441406-119.882813c-4.59375 7.917969-13.191406 21.691407-24.648437 35.433594-15.046875 18.058594-38.050781 39.582032-62.1875 39.582032-9.949219 0-20.832031-1.378907-31.898437-3.980469-4.132813-19.097657-14.941407-33.46875-32.304688-42.832031-7.613281-4.109376-16.46875-7.199219-26.847656-9.359376 30.003906-19.300781 68.289062-21.402343 100.335937-5.375l13.410157-26.820312c-42.140626-21.070312-92.636719-17.949219-131.769532 8.140625l-10.859375 7.242187v-1.972656c0-38.609375 67.566407-74.957031 119.933594-74.957031 36.324219 0 71.953125 48.980469 86.835937 74.898437zm-183.878906-76.316406c-8.632812 5.304688-16.273437 11.011719-22.886718 17.027344v-45.59375h-29.984376v45.855469c-6.753906-6.125-14.578124-11.929688-23.4375-17.320313-10.304687-6.277344-21.488281-11.65625-33.03125-16.003906 11.695313-30.222656 49.972657-58.332031 71.460938-71.230469 21.441406 12.871094 59.5625 40.859375 71.367188 70.988281-11.722657 4.394532-23.066407 9.871094-33.488282 16.277344zm158.007813-59.546875c-.535157 0-1.023438-.007812-1.472657-.023437.074219-.523438.152344-1.039063.222657-1.519532.558593-3.726562 1.25-8.363281 1.25-13.449218 0-5.085938-.691407-9.726563-1.25-13.453125-.070313-.476563-.148438-.992188-.222657-1.515625.445313-.015625.9375-.023438 1.472657-.023438 18.304687 0 29.984375 8.878906 29.984375 14.992188 0 6.113281-11.679688 14.992187-29.984375 14.992187zm0 0"/><path d="m240.632812 360.804688h29.984376v59.964843h-29.984376zm0 0"/></svg>